<svg xmlns="http://www.w3.org/2000/svg" viewBox="0 0 138.62 41.19"><defs><style>.cls-1{fill:#191919;}.cls-2{fill:#eb5d12;}.cls-3{fill:#fff;}</style></defs><g id="Camada_2" data-name="Camada 2"><g id="_02" data-name="02"><rect class="cls-1" width="138.62" height="41.19" rx="5.4" transform="translate(138.62 41.19) rotate(180)"/><path class="cls-2" d="M131.36,4.49a2.86,2.86,0,0,1,2.85,2.85V34.13A2.86,2.86,0,0,1,131.36,37H7.3a2.86,2.86,0,0,1-2.86-2.85V7.34A2.86,2.86,0,0,1,7.3,4.49H131.36m0-2.17H7.3a5,5,0,0,0-5,5V34.13a5,5,0,0,0,5,5H131.36a5,5,0,0,0,5-5V7.34a5,5,0,0,0-5-5Z"/><path class="cls-2" d="M25.66,22.16a.63.63,0,0,1-.69.7H24.7a.62.62,0,0,0-.7.68v4.14a.61.61,0,0,1-.68.69H20.74a.63.63,0,0,1-.69-.69V23.54a.6.6,0,0,0-.69-.68H13.54a.64.64,0,0,1-.69-.7V19s.07-.21.14-.46l2-3.94a.79.79,0,0,1,.78-.55h2.53c.51,0,.8.32.57.78l-1.93,3.87c0,.16,0,.25.19.25h2.25a.62.62,0,0,0,.69-.69v-5.7a.62.62,0,0,1,.69-.69h2.58a.6.6,0,0,1,.68.69v5.7a.63.63,0,0,0,.7.69H25a.61.61,0,0,1,.69.69Z"/><path class="cls-3" d="M36.31,18c-.46.09-.69-.12-.76-.58a1.87,1.87,0,0,0-2-1.54c-.9,0-1.45.53-1.36,1.06.33,1.8,7.59,1.75,7.59,7,0,.69-.78,4.76-6.23,4.76-4.83,0-5.86-3.17-6-5a.68.68,0,0,1,.6-.76l2.6-.57c.46-.09.71.11.76.6a1.88,1.88,0,0,0,2,1.74c1.13,0,2-.66,1.82-1.28C34.93,21.52,28,22,28,16.67c0-.69.39-4.76,5.54-4.76,4.74,0,5.84,3.08,6,4.74a.67.67,0,0,1-.6.75Z"/><path class="cls-3" d="M55.28,27.55c.33.46.12.82-.43.82H51.4a.89.89,0,0,1-.83-.46l-2.85-4.37a.18.18,0,0,0-.32,0l-.95,1.29a.46.46,0,0,0-.09.3v2.55a.62.62,0,0,1-.69.69H43.05a.63.63,0,0,1-.69-.69V13a.62.62,0,0,1,.69-.69h2.62a.61.61,0,0,1,.69.69v4.62c0,.23.16.27.28.09l3.61-5a.91.91,0,0,1,.83-.43h3.4c.57,0,.76.37.44.85l-4.65,6.39a.24.24,0,0,0,0,.32Z"/><path class="cls-3" d="M68.76,27.59c0,.51-.23.78-.69.78H65.5a.62.62,0,0,1-.69-.69v-2a.61.61,0,0,0-.69-.69h-2a.62.62,0,0,0-.69.69v2a.61.61,0,0,1-.69.69H58.18c-.43,0-.69-.27-.69-.78V17.84c0-2.9.46-6,5.64-6s5.63,3.08,5.63,6Zm-4-9.75c0-1.1-.16-1.65-1.68-1.65s-1.68.55-1.68,1.65v2.51a.63.63,0,0,0,.69.69h2a.63.63,0,0,0,.69-.71Z"/><path class="cls-3" d="M75.09,16.92a.61.61,0,0,0-.69-.69H71.18a.63.63,0,0,1-.69-.69V13a.62.62,0,0,1,.69-.69H83a.61.61,0,0,1,.69.69v2.57a.62.62,0,0,1-.69.69H79.73a.62.62,0,0,0-.69.69V27.68a.62.62,0,0,1-.69.69H75.78a.63.63,0,0,1-.69-.69Z"/><path class="cls-3" d="M96.29,12.28A.61.61,0,0,1,97,13v2.57a.62.62,0,0,1-.69.69H90.73a.62.62,0,0,0-.69.69v.74a.63.63,0,0,0,.69.69h3.56A.61.61,0,0,1,95,19v2.57a.62.62,0,0,1-.69.69H90.73A.62.62,0,0,0,90,23v.74a.63.63,0,0,0,.69.69h5.56a.61.61,0,0,1,.69.69v2.57a.61.61,0,0,1-.69.69H86.64a.63.63,0,0,1-.69-.69V13a.62.62,0,0,1,.69-.69Z"/><path class="cls-3" d="M111.79,27.13a.81.81,0,0,1-.75,1.24h-2.63a.54.54,0,0,1-.52-.32l-2.4-4.62a.21.21,0,0,0-.18-.11h-.92a.68.68,0,0,0-.71.71v3.63a.69.69,0,0,1-.72.71h-2.57a.68.68,0,0,1-.71-.71V13a.68.68,0,0,1,.71-.71h5c4.1,0,5.75,1.75,5.75,5.52,0,2.13-.53,3.63-1.74,4.5a.23.23,0,0,0-.07.3Zm-7.4-10.9a.69.69,0,0,0-.71.71v1.71a.69.69,0,0,0,.71.71h1.17c1.11,0,1.66-.14,1.66-1.56s-.55-1.57-1.66-1.57Z"/><path class="cls-3" d="M121.92,18c-.46.09-.69-.12-.76-.58a1.87,1.87,0,0,0-2-1.54c-.9,0-1.45.53-1.36,1.06.32,1.8,7.59,1.75,7.59,7,0,.69-.78,4.76-6.23,4.76-4.83,0-5.87-3.17-6-5a.68.68,0,0,1,.6-.76l2.59-.57c.46-.09.72.11.76.6a1.89,1.89,0,0,0,2,1.74c1.12,0,2-.66,1.81-1.28-.43-2-7.35-1.52-7.35-6.81,0-.69.39-4.76,5.54-4.76,4.73,0,5.84,3.08,6,4.74a.67.67,0,0,1-.6.75Z"/></g></g></svg>