<svg xmlns="http://www.w3.org/2000/svg" viewBox="0 0 496.94 496.94"><defs><style>.cls-1,.cls-5{fill:#191919;}.cls-2,.cls-4{fill:#eb5d12;}.cls-3{fill:#fff;}.cls-4{stroke:#eb5d12;}.cls-4,.cls-5{stroke-miterlimit:10;stroke-width:3.49px;}.cls-5{stroke:#191919;}</style></defs><g id="Camada_2" data-name="Camada 2"><g id="_02" data-name="02"><path class="cls-1" d="M248.47,492.58a46.49,46.49,0,0,1-33.09-13.71L18.07,281.57a46.85,46.85,0,0,1,0-66.19L215.38,18.07a46.8,46.8,0,0,1,66.19,0l197.3,197.31a46.85,46.85,0,0,1,0,66.19l-197.3,197.3A46.51,46.51,0,0,1,248.47,492.58Z"/><path class="cls-1" d="M248.47,8.72a42.33,42.33,0,0,1,30,12.43L475.79,218.46a42.43,42.43,0,0,1,0,60L278.48,475.79a42.44,42.44,0,0,1-60,0L21.15,278.48a42.45,42.45,0,0,1,0-60L218.46,21.15a42.34,42.34,0,0,1,30-12.43m0-8.72a50.83,50.83,0,0,0-36.18,15L15,212.29a51.16,51.16,0,0,0,0,72.36L212.29,482a51.18,51.18,0,0,0,72.36,0L482,284.65a51.18,51.18,0,0,0,0-72.36L284.65,15A50.8,50.8,0,0,0,248.47,0Z"/><path class="cls-2" d="M248.31,21.82a40,40,0,0,1,28.37,11.76L463.2,220.1a40.12,40.12,0,0,1,0,56.74L276.68,463.37a40.14,40.14,0,0,1-56.75,0L33.41,276.84a40.12,40.12,0,0,1,0-56.74L219.93,33.58a40,40,0,0,1,28.38-11.76m0-8.72a48.5,48.5,0,0,0-34.54,14.31L27.24,213.93a48.91,48.91,0,0,0,0,69.08L213.77,469.54a48.86,48.86,0,0,0,69.08,0L469.37,283a48.91,48.91,0,0,0,0-69.08L282.85,27.41A48.53,48.53,0,0,0,248.31,13.1Z"/><path class="cls-3" d="M231.67,92,91.62,232a24.54,24.54,0,0,1-17.35,7.19H53.65a4.65,4.65,0,0,1-3.29-1.36l-.08-.08a4.65,4.65,0,0,1,3.29-7.94H69.63A24.53,24.53,0,0,0,87,222.66L222.31,87.32A24.5,24.5,0,0,0,229.5,70V53.91a4.65,4.65,0,0,1,7.94-3.29l.07.08A4.63,4.63,0,0,1,238.88,54l0,20.66A24.51,24.51,0,0,1,231.67,92Z"/><path class="cls-3" d="M446.12,237.78l-.05.05a4.65,4.65,0,0,1-3.29,1.36H422.11A24.53,24.53,0,0,1,404.76,232l-140-140a24.56,24.56,0,0,1-7.19-17.35V54a4.68,4.68,0,0,1,1.36-3.29l.08-.07a4.65,4.65,0,0,1,7.94,3.29V70a24.5,24.5,0,0,0,7.19,17.35L409.47,222.66a24.53,24.53,0,0,0,17.35,7.18h16A4.65,4.65,0,0,1,446.12,237.78Z"/><path class="cls-3" d="M259,446.44l-.05-.05a4.63,4.63,0,0,1-1.35-3.28V422.48a24.57,24.57,0,0,1,7.18-17.36l140-140a24.53,24.53,0,0,1,17.35-7.19h20.68a4.68,4.68,0,0,1,3.29,1.36l0,.05a4.65,4.65,0,0,1-3.29,7.94H426.8a24.5,24.5,0,0,0-17.35,7.19L274.12,409.79a24.5,24.5,0,0,0-7.19,17.35v16A4.65,4.65,0,0,1,259,446.44Z"/><path class="cls-3" d="M237.51,446.39l-.1.09a4.65,4.65,0,0,1-7.93-3.3l0-16a24.56,24.56,0,0,0-7.19-17.36L87,274.46a24.5,24.5,0,0,0-17.35-7.19h-16a4.65,4.65,0,0,1-3.28-7.94l0-.05a4.65,4.65,0,0,1,3.29-1.36H74.32a24.5,24.5,0,0,1,17.35,7.19l140,140a24.58,24.58,0,0,1,7.19,17.36v20.61A4.68,4.68,0,0,1,237.51,446.39Z"/><rect id="roda" class="cls-4" x="228.65" y="107.19" width="39.46" height="39.46" rx="19.73" transform="translate(162.49 -138.46) rotate(45)"/><rect id="roda-2" data-name="roda" class="cls-4" x="350.29" y="228.82" width="39.46" height="39.46" rx="19.73" transform="translate(284.13 -188.84) rotate(45)"/><rect id="roda-3" data-name="roda" class="cls-4" x="106.93" y="228.74" width="39.46" height="39.46" rx="19.73" transform="translate(212.79 -16.79) rotate(45)"/><rect id="roda-4" data-name="roda" class="cls-4" x="228.65" y="350.46" width="39.46" height="39.46" rx="19.73" transform="translate(334.52 -67.2) rotate(45)"/><rect id="roda-5" data-name="roda" class="cls-5" x="238.55" y="117.09" width="19.66" height="19.66" rx="9.83" transform="translate(162.49 -138.46) rotate(45)"/><rect id="roda-6" data-name="roda" class="cls-5" x="360.19" y="238.73" width="19.66" height="19.66" rx="9.83" transform="translate(284.13 -188.84) rotate(45)"/><rect id="roda-7" data-name="roda" class="cls-5" x="238.55" y="360.36" width="19.66" height="19.66" rx="9.83" transform="translate(334.52 -67.2) rotate(45)"/><rect id="roda-8" data-name="roda" class="cls-5" x="116.83" y="238.64" width="19.66" height="19.66" rx="9.83" transform="translate(212.79 -16.79) rotate(45)"/><path class="cls-2" d="M245.5,256.38a2.63,2.63,0,0,1-2.93,2.93h-1.18a2.63,2.63,0,0,0-2.93,2.93v17.59a2.63,2.63,0,0,1-2.93,2.93H224.59a2.67,2.67,0,0,1-2.93-2.93V262.24a2.59,2.59,0,0,0-2.93-2.93H194a2.67,2.67,0,0,1-2.93-2.93V242.7c0-.09.3-.87.59-1.95l8.4-16.7c.78-1.57,1.56-2.35,3.32-2.35h10.75c2.15,0,3.42,1.37,2.44,3.32l-8.21,16.41c-.19.69,0,1.08.79,1.08h9.57a2.63,2.63,0,0,0,2.93-2.93V215.35a2.63,2.63,0,0,1,2.93-2.93h10.94a2.59,2.59,0,0,1,2.93,2.93v24.23a2.68,2.68,0,0,0,2.93,2.93h1.18a2.59,2.59,0,0,1,2.93,2.93Z"/><path class="cls-3" d="M290.63,238.6c-1.95.39-2.93-.49-3.22-2.44-.69-4-3.91-6.55-8.5-6.55-3.81,0-6.16,2.25-5.77,4.5,1.37,7.62,32.24,7.42,32.24,29.89,0,2.93-3.32,20.22-26.47,20.22-20.52,0-24.91-13.48-25.4-21.1a2.86,2.86,0,0,1,2.54-3.22l11-2.44c2-.4,3,.48,3.22,2.53.39,4.69,4,7.43,8.6,7.43,4.78,0,8.3-2.83,7.72-5.47-1.86-8.3-31.26-6.45-31.26-28.92-.1-2.93,1.66-20.22,23.54-20.22,20.12,0,24.81,13.09,25.4,20.13a2.87,2.87,0,0,1-2.54,3.22Z"/></g></g></svg>