<svg xmlns="http://www.w3.org/2000/svg" viewBox="0 0 160.08 41.19"><defs><style>.cls-1{fill:#191919;}.cls-2{fill:#eb5d12;}.cls-3{fill:#fff;}</style></defs><g id="Camada_2" data-name="Camada 2"><g id="_02" data-name="02"><rect class="cls-1" width="160.08" height="41.19" rx="5.8" transform="translate(160.08 41.19) rotate(180)"/><path class="cls-2" d="M152.09,4.65a3.08,3.08,0,0,1,3.07,3.07v26a3.07,3.07,0,0,1-3.07,3.06H8A3.06,3.06,0,0,1,5,33.76v-26A3.07,3.07,0,0,1,8,4.65H152.09m0-2.33H8a5.39,5.39,0,0,0-5.39,5.4v26A5.39,5.39,0,0,0,8,39.15H152.09a5.39,5.39,0,0,0,5.39-5.39v-26a5.39,5.39,0,0,0-5.39-5.4Z"/><path class="cls-3" d="M14.19,17.72c0-1.52.32-5.59,5.77-5.59,4.9,0,5.66,3.29,5.75,5.06a.6.6,0,0,1-.5.65l-2.55.57a.76.76,0,0,1-.92-.71A1.55,1.55,0,0,0,20,16.09c-1.7,0-1.81,1.08-1.81,2.85v3.31c0,1.77.11,2.85,1.81,2.85,1.27,0,1.61-.59,1.75-1.65a.73.73,0,0,1,.9-.67l2.6.58a.6.6,0,0,1,.5.66c-.09,1.75-.85,5-5.75,5-5.45,0-5.77-4.07-5.77-5.59Z"/><path class="cls-3" d="M39.38,27.86c0,.51-.23.79-.69.79H36.11a.62.62,0,0,1-.69-.69V26a.61.61,0,0,0-.69-.68h-2a.62.62,0,0,0-.69.68v2a.61.61,0,0,1-.69.69H28.8c-.44,0-.69-.28-.69-.79V18.11c0-2.89.46-6,5.63-6s5.64,3.09,5.64,6Zm-4-9.75c0-1.1-.16-1.65-1.68-1.65s-1.68.55-1.68,1.65v2.51a.63.63,0,0,0,.69.69h2a.63.63,0,0,0,.69-.71Z"/><path class="cls-3" d="M45.7,17.19A.61.61,0,0,0,45,16.5H41.79a.63.63,0,0,1-.69-.69V13.24a.62.62,0,0,1,.69-.69H53.57a.61.61,0,0,1,.69.69v2.57a.62.62,0,0,1-.69.69H50.35a.62.62,0,0,0-.69.69V28a.62.62,0,0,1-.69.69H46.39A.63.63,0,0,1,45.7,28Z"/><path class="cls-3" d="M66.91,12.55a.61.61,0,0,1,.69.69v2.57a.62.62,0,0,1-.69.69H61.34a.62.62,0,0,0-.69.69v.74a.63.63,0,0,0,.69.69h3.57a.61.61,0,0,1,.69.69v2.57a.63.63,0,0,1-.69.7H61.34a.61.61,0,0,0-.69.68V24a.63.63,0,0,0,.69.69h5.57a.61.61,0,0,1,.69.69V28a.61.61,0,0,1-.69.69H57.25a.63.63,0,0,1-.69-.69V13.24a.62.62,0,0,1,.69-.69Z"/><path class="cls-3" d="M70.06,17.72c0-1.52.32-5.59,5.77-5.59,4.83,0,5.63,3.18,5.75,5a.67.67,0,0,1-.6.76l-2.6.58c-.46.09-.71-.12-.76-.6-.09-1.11-.48-1.75-1.79-1.75-1.7,0-1.82,1.08-1.82,2.85v3.31c0,1.77.12,2.85,1.82,2.85s1.82-1.08,1.82-2.2H76.31a.64.64,0,0,1-.69-.69V20.37a.62.62,0,0,1,.69-.69h4.6a.61.61,0,0,1,.69.69v3.1c0,1.52-.32,5.59-5.77,5.59S70.06,25,70.06,23.47Z"/><path class="cls-3" d="M95.86,23.47c0,1.52-.32,5.59-5.77,5.59S84.32,25,84.32,23.47V17.72c0-1.52.32-5.59,5.77-5.59s5.77,4.07,5.77,5.59Zm-4-4.53c0-1.77-.12-2.85-1.82-2.85s-1.82,1.08-1.82,2.85v3.31c0,1.77.12,2.85,1.82,2.85s1.82-1.08,1.82-2.85Z"/><path class="cls-3" d="M111,27.4a.82.82,0,0,1-.76,1.25h-2.62a.57.57,0,0,1-.53-.33l-2.39-4.62a.21.21,0,0,0-.18-.11h-.92a.69.69,0,0,0-.71.71v3.63a.69.69,0,0,1-.72.72H99.57a.69.69,0,0,1-.72-.72V13.26a.69.69,0,0,1,.72-.71h5c4.1,0,5.75,1.75,5.75,5.52,0,2.14-.53,3.63-1.75,4.51a.23.23,0,0,0-.06.29Zm-7.4-10.9a.69.69,0,0,0-.71.72v1.7a.69.69,0,0,0,.71.71h1.17c1.11,0,1.66-.14,1.66-1.56s-.55-1.57-1.66-1.57Z"/><path class="cls-3" d="M116.63,12.55a.61.61,0,0,1,.69.69V28a.62.62,0,0,1-.69.69H114.1a.64.64,0,0,1-.69-.69V13.24a.62.62,0,0,1,.69-.69Z"/><path class="cls-3" d="M131.7,27.86c0,.51-.23.79-.69.79h-2.58a.62.62,0,0,1-.69-.69V26a.61.61,0,0,0-.69-.68h-2a.62.62,0,0,0-.69.68v2a.61.61,0,0,1-.69.69h-2.57c-.44,0-.69-.28-.69-.79V18.11c0-2.89.46-6,5.63-6s5.64,3.09,5.64,6Zm-4-9.75c0-1.1-.16-1.65-1.68-1.65s-1.68.55-1.68,1.65v2.51a.63.63,0,0,0,.69.69h2a.63.63,0,0,0,.69-.71Z"/><path class="cls-3" d="M142.83,18.25c-.46.09-.69-.11-.76-.57a1.86,1.86,0,0,0-2-1.54c-.9,0-1.45.52-1.36,1.05.32,1.8,7.59,1.75,7.59,7,0,.69-.78,4.76-6.23,4.76-4.83,0-5.86-3.17-6-5a.69.69,0,0,1,.6-.76l2.6-.57c.46-.09.71.11.76.6a1.89,1.89,0,0,0,2,1.75c1.13,0,2-.67,1.82-1.29-.44-2-7.36-1.52-7.36-6.81,0-.69.39-4.76,5.54-4.76,4.74,0,5.84,3.08,6,4.74a.69.69,0,0,1-.6.76Z"/></g></g></svg>