<svg xmlns="http://www.w3.org/2000/svg" viewBox="0 0 147.79 41.19"><defs><style>.cls-1{fill:#191919;}.cls-2{fill:#eb5d12;}.cls-3{fill:#fff;}</style></defs><g id="Camada_2" data-name="Camada 2"><g id="_02" data-name="02"><rect class="cls-1" width="147.79" height="41.19" rx="5.57" transform="translate(147.79 41.19) rotate(180)"/><path class="cls-2" d="M140.21,4.56a3,3,0,0,1,2.95,3V34a3,3,0,0,1-2.95,2.94H7.61A2.94,2.94,0,0,1,4.67,34V7.51A3,3,0,0,1,7.61,4.56h132.6m0-2.24H7.61A5.18,5.18,0,0,0,2.43,7.51V34a5.18,5.18,0,0,0,5.18,5.18h132.6A5.18,5.18,0,0,0,145.4,34V7.51a5.19,5.19,0,0,0-5.19-5.19Z"/><path class="cls-3" d="M18.81,12.55a.8.8,0,0,1,.81.53l3.12,7.66c.1.2.28.16.28-.07V13.24a.62.62,0,0,1,.69-.69h2.57a.62.62,0,0,1,.7.69V28a.63.63,0,0,1-.7.69H22.91a.8.8,0,0,1-.81-.53L19,20.46c-.09-.21-.27-.16-.27.07V28a.62.62,0,0,1-.69.69H15.43a.63.63,0,0,1-.69-.69V13.24a.62.62,0,0,1,.69-.69Z"/><path class="cls-3" d="M41.51,23.47c0,1.52-.32,5.59-5.77,5.59S30,25,30,23.47V17.72c0-1.51.32-5.59,5.77-5.59s5.77,4.08,5.77,5.59Zm-3.95-4.53c0-1.77-.12-2.85-1.82-2.85s-1.82,1.08-1.82,2.85v3.31c0,1.77.12,2.85,1.82,2.85s1.82-1.08,1.82-2.85Z"/><path class="cls-3" d="M46.76,12.55a.72.72,0,0,1,.76.6l2,8.83c0,.2.23.2.28,0l2-8.83a.71.71,0,0,1,.76-.6h2.73c.49,0,.72.28.6.76L52.57,28.05a.7.7,0,0,1-.75.6H47.54a.71.71,0,0,1-.76-.6L43.42,13.31a.55.55,0,0,1,.6-.76Z"/><path class="cls-3" d="M61.64,12.55a.61.61,0,0,1,.69.69V28a.62.62,0,0,1-.69.69H59.11a.63.63,0,0,1-.69-.69V13.24a.62.62,0,0,1,.69-.69Z"/><path class="cls-3" d="M71.37,12.55c4.32,0,5.74,1.75,5.74,5.52v5c0,3.78-1.42,5.55-5.74,5.55H66.24a.63.63,0,0,1-.69-.69V13.26a.63.63,0,0,1,.69-.71Zm.06,12.14c1.11,0,1.66-.18,1.66-1.56V18.07c0-1.43-.55-1.57-1.66-1.57H70.19a.62.62,0,0,0-.69.69V24a.63.63,0,0,0,.69.69Z"/><path class="cls-3" d="M91.26,27.86c0,.51-.23.79-.69.79H88A.62.62,0,0,1,87.3,28V26a.61.61,0,0,0-.69-.69h-2A.62.62,0,0,0,84,26v2a.61.61,0,0,1-.69.69H80.68c-.44,0-.69-.28-.69-.79V18.11c0-2.89.46-6,5.64-6s5.63,3.09,5.63,6Zm-4-9.75c0-1.1-.16-1.65-1.67-1.65S84,17,84,18.11v2.51a.63.63,0,0,0,.69.69h2a.63.63,0,0,0,.69-.71Z"/><path class="cls-3" d="M100.18,12.55c4.33,0,5.75,1.75,5.75,5.52v5c0,3.78-1.42,5.55-5.75,5.55H95.06a.63.63,0,0,1-.69-.69V13.26a.63.63,0,0,1,.69-.71Zm.07,12.14c1.11,0,1.66-.18,1.66-1.56V18.07c0-1.43-.55-1.57-1.66-1.57H99a.62.62,0,0,0-.69.69V24a.63.63,0,0,0,.69.69Z"/><path class="cls-3" d="M119.27,12.55a.61.61,0,0,1,.69.69v2.57a.62.62,0,0,1-.69.69h-5.56a.62.62,0,0,0-.69.69v.74a.63.63,0,0,0,.69.69h3.56a.61.61,0,0,1,.69.69v2.57a.63.63,0,0,1-.69.7h-3.56a.61.61,0,0,0-.69.68V24a.63.63,0,0,0,.69.69h5.56a.61.61,0,0,1,.69.69V28a.61.61,0,0,1-.69.69h-9.65a.63.63,0,0,1-.69-.69V13.24a.62.62,0,0,1,.69-.69Z"/><path class="cls-3" d="M130.22,18.25c-.46.09-.69-.11-.76-.57a1.86,1.86,0,0,0-2-1.54c-.89,0-1.45.53-1.35,1.05.32,1.8,7.58,1.75,7.58,7,0,.69-.78,4.76-6.23,4.76-4.83,0-5.86-3.17-6-5a.69.69,0,0,1,.6-.76l2.6-.57c.46-.09.71.11.76.6a1.89,1.89,0,0,0,2,1.75c1.13,0,2-.67,1.82-1.29-.44-2-7.36-1.52-7.36-6.81,0-.69.39-4.76,5.54-4.76,4.74,0,5.84,3.08,6,4.74a.68.68,0,0,1-.6.76Z"/></g></g></svg>