<svg xmlns="http://www.w3.org/2000/svg" viewBox="0 0 138.62 41.19"><defs><style>.cls-1{fill:#191919;}.cls-2{fill:#eb5d12;}.cls-3{fill:#fff;}</style></defs><g id="Camada_2" data-name="Camada 2"><g id="_02" data-name="02"><rect class="cls-1" width="138.62" height="41.19" rx="5.4" transform="translate(138.62 41.19) rotate(180)"/><path class="cls-2" d="M131.34,4.49a2.86,2.86,0,0,1,2.85,2.85V34.13A2.86,2.86,0,0,1,131.34,37H7.28a2.86,2.86,0,0,1-2.85-2.85V7.34A2.86,2.86,0,0,1,7.28,4.49H131.34m0-2.17H7.28a5,5,0,0,0-5,5V34.13a5,5,0,0,0,5,5H131.34a5,5,0,0,0,5-5V7.34a5,5,0,0,0-5-5Z"/><path class="cls-3" d="M19.45,12.28c4.09,0,5.75,1.75,5.75,5.52s-1.66,5.52-5.75,5.52H18.34a.62.62,0,0,0-.69.69v3.67a.61.61,0,0,1-.69.69H14.39a.63.63,0,0,1-.69-.69V13a.63.63,0,0,1,.69-.71Zm.14,7.08c1.1,0,1.65-.14,1.65-1.56s-.55-1.57-1.65-1.57H18.34a.62.62,0,0,0-.69.69v1.75a.63.63,0,0,0,.69.69Z"/><path class="cls-3" d="M39.66,27.13a.81.81,0,0,1-.76,1.24H36.28a.56.56,0,0,1-.53-.32l-2.39-4.62a.21.21,0,0,0-.18-.11h-.92a.68.68,0,0,0-.71.71v3.63a.69.69,0,0,1-.72.71H28.26a.69.69,0,0,1-.72-.71V13a.69.69,0,0,1,.72-.71h5C37.39,12.28,39,14,39,17.8c0,2.13-.53,3.63-1.75,4.5a.24.24,0,0,0-.06.3Zm-7.4-10.9a.69.69,0,0,0-.71.72v1.7a.68.68,0,0,0,.71.71h1.17c1.11,0,1.66-.14,1.66-1.56s-.55-1.57-1.66-1.57Z"/><path class="cls-3" d="M53.42,23.2c0,1.52-.33,5.59-5.78,5.59s-5.77-4.07-5.77-5.59V17.45c0-1.52.33-5.59,5.77-5.59s5.78,4.07,5.78,5.59Zm-4-4.53c0-1.77-.11-2.85-1.82-2.85s-1.81,1.08-1.81,2.85V22c0,1.77.11,2.85,1.81,2.85s1.82-1.08,1.82-2.85Z"/><path class="cls-3" d="M62.23,12.28C66.55,12.28,68,14,68,17.8v5c0,3.77-1.42,5.54-5.74,5.54H57.1a.63.63,0,0,1-.69-.69V13a.63.63,0,0,1,.69-.71Zm.07,12.14c1.1,0,1.65-.18,1.65-1.56V17.8c0-1.43-.55-1.57-1.65-1.57H61.05a.62.62,0,0,0-.69.69v6.81a.63.63,0,0,0,.69.69Z"/><path class="cls-3" d="M74.09,12.28a.61.61,0,0,1,.69.69v9c0,1.77.12,2.85,1.82,2.85s1.82-1.08,1.82-2.85V13a.62.62,0,0,1,.69-.69h2.57a.61.61,0,0,1,.69.69V23.2c0,1.52-.32,5.59-5.77,5.59s-5.77-4.07-5.77-5.59V13a.62.62,0,0,1,.69-.69Z"/><path class="cls-3" d="M89.14,16.92a.61.61,0,0,0-.69-.69H85.23a.63.63,0,0,1-.69-.69V13a.62.62,0,0,1,.69-.69H97a.61.61,0,0,1,.69.69v2.57a.62.62,0,0,1-.69.69H93.78a.62.62,0,0,0-.69.69V27.68a.62.62,0,0,1-.69.69H89.83a.63.63,0,0,1-.69-.69Z"/><path class="cls-3" d="M111.08,23.2c0,1.52-.32,5.59-5.77,5.59s-5.78-4.07-5.78-5.59V17.45c0-1.52.33-5.59,5.78-5.59s5.77,4.07,5.77,5.59Zm-4-4.53c0-1.77-.11-2.85-1.81-2.85s-1.82,1.08-1.82,2.85V22c0,1.77.11,2.85,1.82,2.85s1.81-1.08,1.81-2.85Z"/><path class="cls-3" d="M122.1,18c-.46.09-.69-.11-.76-.57a1.86,1.86,0,0,0-2-1.54c-.9,0-1.45.52-1.36,1.05.32,1.8,7.59,1.75,7.59,7,0,.69-.78,4.76-6.23,4.76-4.83,0-5.87-3.17-6-5A.68.68,0,0,1,114,23l2.59-.57c.46-.09.72.11.76.6a1.89,1.89,0,0,0,2,1.74c1.12,0,2-.66,1.81-1.28-.43-2-7.35-1.52-7.35-6.81,0-.69.39-4.76,5.54-4.76,4.73,0,5.84,3.08,6,4.74a.69.69,0,0,1-.6.76Z"/></g></g></svg>