<svg xmlns="http://www.w3.org/2000/svg" viewBox="0 0 147.79 41.19"><defs><style>.cls-1{fill:#191919;}.cls-2{fill:#eb5d12;}.cls-3{fill:#fff;}</style></defs><g id="Camada_2" data-name="Camada 2"><g id="_02" data-name="02"><rect class="cls-1" width="147.79" height="41.19" rx="5.57" transform="translate(147.79 41.19) rotate(180)"/><path class="cls-2" d="M140.21,4.56a3,3,0,0,1,2.95,3V34a3,3,0,0,1-2.95,2.94H7.61A2.94,2.94,0,0,1,4.67,34V7.51A3,3,0,0,1,7.61,4.56h132.6m0-2.24H7.61A5.18,5.18,0,0,0,2.43,7.51V34a5.18,5.18,0,0,0,5.18,5.18h132.6A5.18,5.18,0,0,0,145.4,34V7.51a5.19,5.19,0,0,0-5.19-5.19Z"/><path class="cls-3" d="M21.56,18.25c-.46.09-.69-.11-.76-.57a1.86,1.86,0,0,0-2-1.54c-.9,0-1.45.53-1.36,1.05.32,1.8,7.59,1.75,7.59,7,0,.69-.78,4.76-6.23,4.76-4.83,0-5.86-3.17-6-5a.67.67,0,0,1,.6-.75l2.6-.58c.46-.09.71.12.76.6a1.89,1.89,0,0,0,2,1.75c1.13,0,1.95-.67,1.82-1.29-.44-2-7.36-1.52-7.36-6.81,0-.69.39-4.76,5.54-4.76,4.74,0,5.84,3.08,6,4.74a.68.68,0,0,1-.6.76Z"/><path class="cls-3" d="M38.92,23.47c0,1.52-.32,5.59-5.77,5.59S27.38,25,27.38,23.47V17.72c0-1.51.32-5.58,5.77-5.58s5.77,4.07,5.77,5.58Zm-4-4.53c0-1.77-.12-2.85-1.82-2.85s-1.82,1.08-1.82,2.85v3.31c0,1.77.12,2.86,1.82,2.86S35,24,35,22.25Z"/><path class="cls-3" d="M47.43,12.55c4.33,0,6,1.75,6,5.52a5.25,5.25,0,0,1-1.17,3.33,3.24,3.24,0,0,1,1.63,3c0,2.86-1.26,4.24-5.59,4.24H42.61a.64.64,0,0,1-.7-.69V13.26a.64.64,0,0,1,.7-.71ZM48,25.38c1.1,0,1.65-.11,1.65-1.19s-.5-1.25-1.61-1.25H46.54a.62.62,0,0,0-.69.69v1.06a.62.62,0,0,0,.69.69Zm-.19-5.75c1.11,0,1.66-.14,1.66-1.56s-.55-1.57-1.66-1.57H46.56a.62.62,0,0,0-.69.69v1.75a.62.62,0,0,0,.69.69Z"/><path class="cls-3" d="M68.43,27.4a.82.82,0,0,1-.76,1.25H65.05a.56.56,0,0,1-.53-.33L62.13,23.7a.22.22,0,0,0-.18-.11H61a.69.69,0,0,0-.72.71v3.63a.69.69,0,0,1-.71.72H57a.69.69,0,0,1-.72-.72V13.26a.69.69,0,0,1,.72-.71h5c4.09,0,5.75,1.75,5.75,5.52,0,2.14-.53,3.63-1.75,4.51a.24.24,0,0,0-.07.29ZM61,16.5a.69.69,0,0,0-.72.72v1.7a.69.69,0,0,0,.72.71H62.2c1.1,0,1.66-.14,1.66-1.56S63.3,16.5,62.2,16.5Z"/><path class="cls-3" d="M81.22,12.55a.61.61,0,0,1,.69.69v2.58a.62.62,0,0,1-.69.68H75.65a.62.62,0,0,0-.69.69v.74a.63.63,0,0,0,.69.69h3.57a.61.61,0,0,1,.69.69v2.58a.62.62,0,0,1-.69.69H75.65a.62.62,0,0,0-.69.69V24a.63.63,0,0,0,.69.69h5.57a.61.61,0,0,1,.69.69V28a.61.61,0,0,1-.69.69H71.56a.63.63,0,0,1-.69-.69V13.24a.62.62,0,0,1,.69-.69Z"/><path class="cls-3" d="M96.49,12.55a.81.81,0,0,1,.81.53l3.12,7.66c.1.2.28.16.28-.07V13.24a.62.62,0,0,1,.69-.69H104a.61.61,0,0,1,.69.69V28a.62.62,0,0,1-.69.69h-3.38a.8.8,0,0,1-.8-.53l-3.13-7.66c-.09-.21-.27-.16-.27.07V28a.62.62,0,0,1-.69.69H93.11a.63.63,0,0,1-.69-.69V13.24a.62.62,0,0,1,.69-.69Z"/><path class="cls-3" d="M119.19,23.47c0,1.52-.32,5.59-5.77,5.59s-5.77-4.07-5.77-5.59V17.72c0-1.51.32-5.58,5.77-5.58s5.77,4.07,5.77,5.58Zm-4-4.53c0-1.77-.12-2.85-1.82-2.85s-1.82,1.08-1.82,2.85v3.31c0,1.77.12,2.86,1.82,2.86s1.82-1.09,1.82-2.86Z"/><path class="cls-3" d="M130.21,18.25c-.46.09-.69-.11-.76-.57a1.86,1.86,0,0,0-2-1.54c-.9,0-1.45.53-1.36,1.05.32,1.8,7.59,1.75,7.59,7,0,.69-.78,4.76-6.23,4.76-4.83,0-5.86-3.17-6-5a.67.67,0,0,1,.6-.75l2.6-.58c.46-.09.71.12.76.6a1.89,1.89,0,0,0,2,1.75c1.13,0,2-.67,1.82-1.29-.44-2-7.36-1.52-7.36-6.81,0-.69.39-4.76,5.54-4.76,4.74,0,5.84,3.08,6,4.74a.68.68,0,0,1-.6.76Z"/></g></g></svg>